<svg xmlns="http://www.w3.org/2000/svg" width="25" height="20" viewBox="0 0 25 20"><defs><style>.a{fill:#3a3a3a;}</style></defs><path class="a" d="M0,10v5a1.249,1.249,0,0,0,1.25,1.25H2.5V8.75H1.25A1.249,1.249,0,0,0,0,10ZM18.125,3.75H13.75V1.25a1.25,1.25,0,0,0-2.5,0v2.5H6.875A3.124,3.124,0,0,0,3.75,6.875V17.5A2.5,2.5,0,0,0,6.25,20h12.5a2.5,2.5,0,0,0,2.5-2.5V6.875A3.124,3.124,0,0,0,18.125,3.75ZM10,16.25H7.5V15H10ZM8.75,11.563A1.563,1.563,0,1,1,10.313,10,1.562,1.562,0,0,1,8.75,11.563Zm5,4.688h-2.5V15h2.5Zm3.75,0H15V15h2.5Zm-1.25-4.687A1.563,1.563,0,1,1,17.813,10,1.562,1.562,0,0,1,16.25,11.563Zm7.5-2.812H22.5v7.5h1.25A1.249,1.249,0,0,0,25,15V10A1.249,1.249,0,0,0,23.75,8.75Z" transform="translate(0)"/></svg>