<svg xmlns="http://www.w3.org/2000/svg" width="12.5" height="14.063" viewBox="0 0 12.5 14.063"><path d="M15.547,3.906H4.453a.705.705,0,0,0-.078,1.406V17.031a.94.94,0,0,0,.938.938H8.75a.313.313,0,0,0,.313-.312V16.094a.313.313,0,0,1,.313-.312h1.25a.313.313,0,0,1,.313.313v1.563a.313.313,0,0,0,.313.313h3.438a.94.94,0,0,0,.938-.937V5.313a.705.705,0,0,0-.078-1.406ZM7.5,14.219a.313.313,0,0,1-.312.313H6.563a.313.313,0,0,1-.312-.312v-.625a.313.313,0,0,1,.313-.312h.625a.313.313,0,0,1,.313.313Zm0-2.5a.313.313,0,0,1-.312.313H6.563a.313.313,0,0,1-.312-.312v-.625a.313.313,0,0,1,.313-.312h.625a.313.313,0,0,1,.313.313Zm0-2.5a.313.313,0,0,1-.312.313H6.563a.313.313,0,0,1-.312-.312V8.594a.313.313,0,0,1,.313-.312h.625a.313.313,0,0,1,.313.313Zm0-2.5a.313.313,0,0,1-.312.313H6.563a.313.313,0,0,1-.312-.312V6.094a.313.313,0,0,1,.313-.312h.625a.313.313,0,0,1,.313.313Zm3.125,7.5a.313.313,0,0,1-.312.313H9.688a.313.313,0,0,1-.312-.312v-.625a.313.313,0,0,1,.313-.312h.625a.313.313,0,0,1,.313.313Zm0-2.5a.313.313,0,0,1-.312.313H9.688a.313.313,0,0,1-.312-.312v-.625a.313.313,0,0,1,.313-.312h.625a.313.313,0,0,1,.313.313Zm0-2.5a.313.313,0,0,1-.312.313H9.688a.313.313,0,0,1-.312-.312V8.594a.313.313,0,0,1,.313-.312h.625a.313.313,0,0,1,.313.313Zm0-2.5a.313.313,0,0,1-.312.313H9.688a.313.313,0,0,1-.312-.312V6.094a.313.313,0,0,1,.313-.312h.625a.313.313,0,0,1,.313.313Zm3.125,7.5a.313.313,0,0,1-.312.313h-.625a.313.313,0,0,1-.312-.312v-.625a.313.313,0,0,1,.313-.312h.625a.313.313,0,0,1,.313.313Zm0-2.5a.313.313,0,0,1-.312.313h-.625a.313.313,0,0,1-.312-.312v-.625a.313.313,0,0,1,.313-.312h.625a.313.313,0,0,1,.313.313Zm0-2.5a.313.313,0,0,1-.312.313h-.625a.313.313,0,0,1-.312-.312V8.594a.313.313,0,0,1,.313-.312h.625a.313.313,0,0,1,.313.313Zm0-2.5a.313.313,0,0,1-.312.313h-.625a.313.313,0,0,1-.312-.312V6.094a.313.313,0,0,1,.313-.312h.625a.313.313,0,0,1,.313.313Z" transform="translate(-3.75 -3.906)" fill="#438eff"/></svg>