<svg xmlns="http://www.w3.org/2000/svg" width="22.5" height="17.5" viewBox="0 0 22.5 17.5"><defs><style>.a{fill:#17478f;}</style></defs><path class="a" d="M20.625,1.25H1.875A1.875,1.875,0,0,0,0,3.125v13.75A1.875,1.875,0,0,0,1.875,18.75h18.75A1.875,1.875,0,0,0,22.5,16.875V3.125A1.875,1.875,0,0,0,20.625,1.25ZM6.875,5a2.5,2.5,0,1,1-2.5,2.5A2.5,2.5,0,0,1,6.875,5Zm4.375,9.25a.819.819,0,0,1-.875.75h-7a.819.819,0,0,1-.875-.75V13.5a2.46,2.46,0,0,1,2.625-2.25h.2a4.024,4.024,0,0,0,3.109,0h.2A2.46,2.46,0,0,1,11.25,13.5ZM20,12.188a.313.313,0,0,1-.312.313H14.063a.313.313,0,0,1-.312-.312v-.625a.313.313,0,0,1,.313-.312h5.625a.313.313,0,0,1,.313.313Zm0-2.5a.313.313,0,0,1-.312.313H14.063a.313.313,0,0,1-.312-.312V9.063a.313.313,0,0,1,.313-.312h5.625A.313.313,0,0,1,20,9.063Zm0-2.5a.313.313,0,0,1-.312.313H14.063a.313.313,0,0,1-.312-.312V6.563a.313.313,0,0,1,.313-.312h5.625A.313.313,0,0,1,20,6.563Z" transform="translate(0 -1.25)"/></svg>