<svg xmlns="http://www.w3.org/2000/svg" width="18.75" height="15" viewBox="0 0 18.75 15"><path d="M18.281,6.094H16.406V4.219a.47.47,0,0,0-.469-.469H15a.47.47,0,0,0-.469.469V6.094H12.656a.47.47,0,0,0-.469.469V7.5a.47.47,0,0,0,.469.469h1.875V9.844a.47.47,0,0,0,.469.469h.938a.47.47,0,0,0,.469-.469V7.969h1.875A.47.47,0,0,0,18.75,7.5V6.563A.47.47,0,0,0,18.281,6.094ZM6.563,7.5a3.75,3.75,0,1,0-3.75-3.75A3.75,3.75,0,0,0,6.563,7.5Zm2.625.938H8.7a5.1,5.1,0,0,1-4.271,0H3.938A3.939,3.939,0,0,0,0,12.375v1.219A1.407,1.407,0,0,0,1.406,15H11.719a1.407,1.407,0,0,0,1.406-1.406V12.375A3.939,3.939,0,0,0,9.188,8.438Z" fill="#fff"/></svg>