<svg xmlns="http://www.w3.org/2000/svg" width="15" height="15.004" viewBox="0 0 15 15.004"><defs><style>.a{fill:#fff;}</style></defs><path class="a" d="M16.262,10A1.93,1.93,0,0,1,17.5,8.2a7.651,7.651,0,0,0-.926-2.23,1.956,1.956,0,0,1-.785.168,1.926,1.926,0,0,1-1.762-2.711A7.628,7.628,0,0,0,11.8,2.5a1.929,1.929,0,0,1-3.6,0,7.651,7.651,0,0,0-2.23.926A1.926,1.926,0,0,1,4.207,6.137a1.892,1.892,0,0,1-.785-.168A7.82,7.82,0,0,0,2.5,8.2a1.93,1.93,0,0,1,0,3.6,7.651,7.651,0,0,0,.926,2.23,1.927,1.927,0,0,1,2.543,2.543A7.7,7.7,0,0,0,8.2,17.5a1.925,1.925,0,0,1,3.594,0,7.651,7.651,0,0,0,2.23-.926,1.929,1.929,0,0,1,2.543-2.543A7.7,7.7,0,0,0,17.5,11.8,1.939,1.939,0,0,1,16.262,10Zm-6.227,3.121A3.125,3.125,0,1,1,13.16,10,3.124,3.124,0,0,1,10.035,13.121Z" transform="translate(-2.5 -2.5)"/></svg>