<svg xmlns="http://www.w3.org/2000/svg" width="30" height="30" viewBox="0 0 30 30"><defs><style>.a{fill:#3a3a3a;}</style></defs><path class="a" d="M28.594,7.5h-.469V4.688C28.125,2.063,22.313,0,15,0S1.875,2.063,1.875,4.688V7.5H1.406A1.406,1.406,0,0,0,0,8.906v4.688A1.407,1.407,0,0,0,1.406,15h.469v9.375A1.875,1.875,0,0,0,3.75,26.25v1.875A1.875,1.875,0,0,0,5.625,30H7.5a1.875,1.875,0,0,0,1.875-1.875V26.25h11.25v1.875A1.875,1.875,0,0,0,22.5,30h1.875a1.875,1.875,0,0,0,1.875-1.875V26.25h.375a1.479,1.479,0,0,0,1.5-1.5V15h.469A1.407,1.407,0,0,0,30,13.594V8.906A1.406,1.406,0,0,0,28.594,7.5ZM6.563,23.438a1.875,1.875,0,1,1,1.875-1.875A1.875,1.875,0,0,1,6.563,23.438ZM7.5,16.875A1.875,1.875,0,0,1,5.625,15V7.5A1.875,1.875,0,0,1,7.5,5.625h15A1.875,1.875,0,0,1,24.375,7.5V15A1.875,1.875,0,0,1,22.5,16.875Zm15.938,6.563a1.875,1.875,0,1,1,1.875-1.875A1.875,1.875,0,0,1,23.438,23.438Z"/></svg>