<svg xmlns="http://www.w3.org/2000/svg" width="19.375" height="19.375" viewBox="0 0 19.375 19.375"><defs><style>.a{fill:#d54470;}</style></defs><path class="a" d="M10,.313A9.688,9.688,0,1,0,19.688,10,9.686,9.686,0,0,0,10,.313Zm4.75,12.23a.469.469,0,0,1,0,.664L13.2,14.75a.469.469,0,0,1-.664,0L10,12.188,7.457,14.75a.469.469,0,0,1-.664,0L5.25,13.2a.469.469,0,0,1,0-.664L7.813,10,5.25,7.457a.469.469,0,0,1,0-.664L6.8,5.246a.469.469,0,0,1,.664,0L10,7.813,12.543,5.25a.469.469,0,0,1,.664,0L14.754,6.8a.469.469,0,0,1,0,.664L12.188,10Z" transform="translate(-0.313 -0.313)"/></svg>