<svg xmlns="http://www.w3.org/2000/svg" width="13.75" height="13.75" viewBox="0 0 13.75 13.75"><defs><style>.a{fill:#606060;}</style></defs><path class="a" d="M9.481,10,13.39,6.091a1.229,1.229,0,0,0,0-1.738l-.869-.869a1.229,1.229,0,0,0-1.738,0L6.875,7.394,2.966,3.485a1.229,1.229,0,0,0-1.737,0L.36,4.354a1.229,1.229,0,0,0,0,1.738L4.269,10,.36,13.909a1.229,1.229,0,0,0,0,1.738l.869.869a1.229,1.229,0,0,0,1.737,0l3.909-3.909,3.909,3.909a1.229,1.229,0,0,0,1.738,0l.869-.869a1.229,1.229,0,0,0,0-1.738Z" transform="translate(0 -3.125)"/></svg>